<svg width="16" height="16" viewBox="0 0 16 16" fill="none" xmlns="http://www.w3.org/2000/svg">
<path fill-rule="evenodd" clip-rule="evenodd" d="M8 9.99992C8.13261 9.99992 8.25979 9.94724 8.35355 9.85347C8.44732 9.7597 8.5 9.63253 8.5 9.49992V3.70692L10.646 5.85392C10.6925 5.90041 10.7477 5.93728 10.8084 5.96244C10.8692 5.9876 10.9343 6.00055 11 6.00055C11.0657 6.00055 11.1308 5.9876 11.1916 5.96244C11.2523 5.93728 11.3075 5.90041 11.354 5.85392C11.4005 5.80743 11.4374 5.75224 11.4625 5.6915C11.4877 5.63076 11.5006 5.56566 11.5006 5.49992C11.5006 5.43417 11.4877 5.36907 11.4625 5.30833C11.4374 5.24759 11.4005 5.19241 11.354 5.14592L8.354 2.14592C8.30755 2.09935 8.25238 2.06241 8.19163 2.0372C8.13089 2.012 8.06577 1.99902 8 1.99902C7.93423 1.99902 7.86911 2.012 7.80837 2.0372C7.74762 2.06241 7.69245 2.09935 7.646 2.14592L4.646 5.14592C4.55211 5.2398 4.49937 5.36714 4.49937 5.49992C4.49937 5.63269 4.55211 5.76003 4.646 5.85392C4.73989 5.9478 4.86722 6.00055 5 6.00055C5.13278 6.00055 5.26011 5.9478 5.354 5.85392L7.5 3.70692V9.49992C7.5 9.63253 7.55268 9.7597 7.64645 9.85347C7.74021 9.94724 7.86739 9.99992 8 9.99992ZM1 12.4999C1 12.3673 1.05268 12.2401 1.14645 12.1464C1.24021 12.0526 1.36739 11.9999 1.5 11.9999H14.5C14.6326 11.9999 14.7598 12.0526 14.8536 12.1464C14.9473 12.2401 15 12.3673 15 12.4999C15 12.6325 14.9473 12.7597 14.8536 12.8535C14.7598 12.9472 14.6326 12.9999 14.5 12.9999H1.5C1.36739 12.9999 1.24021 12.9472 1.14645 12.8535C1.05268 12.7597 1 12.6325 1 12.4999V12.4999Z" fill="black"/>
</svg>
