<svg width="26" height="24" viewBox="0 0 26 24" fill="none" xmlns="http://www.w3.org/2000/svg">
<path fill-rule="evenodd" clip-rule="evenodd" d="M6.85009 2.81529C2.97067 3.99738 1.24032 8.00569 2.54095 11.8295C3.20096 13.6301 4.27434 15.2485 5.68458 16.5762C7.6192 18.3545 9.74458 19.9194 12.0293 21.2491L12.2888 21.3961C12.5373 21.5369 12.8481 21.5344 13.0941 21.3897L13.3363 21.2473C15.6179 19.9194 17.7433 18.3545 19.6712 16.5824C21.0881 15.2485 22.1615 13.6301 22.816 11.8452C24.1213 8.00801 22.3838 3.9978 18.5032 2.81535L18.2225 2.73623C16.4433 2.27309 14.5526 2.5013 12.9587 3.35535L12.6754 3.51429L12.3971 3.35623C10.716 2.45344 8.70685 2.25003 6.85009 2.81529ZM12.0199 4.85427L12.2278 4.99538C12.5018 5.18111 12.8715 5.17742 13.1413 4.98625C14.5466 3.99056 16.3653 3.70082 18.0314 4.20669C21.0381 5.12284 22.4064 8.28096 21.3516 11.382C20.7795 12.9417 19.8325 14.3696 18.5888 15.5405L18.0309 16.0421C16.5278 17.3642 14.9022 18.561 13.1763 19.6156L12.682 19.9098L12.8329 19.9998C10.6525 18.7308 8.6167 17.2319 6.76983 15.5343C5.53279 14.3696 4.58577 12.9417 4.00813 11.3663C2.95788 8.27801 4.32024 5.12212 7.3253 4.20645C8.91208 3.72338 10.642 3.96289 12.0199 4.85427ZM16.7705 6.48373C16.364 6.36092 15.9291 6.57303 15.7992 6.95748C15.6694 7.34194 15.8937 7.75316 16.3002 7.87597C17.0993 8.11734 17.669 8.79803 17.7403 9.60095C17.7761 10.0031 18.1498 10.3017 18.5751 10.2679C19.0004 10.2341 19.3162 9.88069 19.2804 9.47852C19.1569 8.08858 18.1668 6.9055 16.7705 6.48373Z" fill="#333333"/>
</svg>
