<svg width="165" height="35" viewBox="0 0 165 35" fill="none" xmlns="http://www.w3.org/2000/svg">
<path d="M0.432 27C0.153333 27 0.0393335 26.8733 0.0900001 26.62L3.89 2.49C3.94067 2.23667 4.08 2.11 4.308 2.11H17.57C17.6967 2.11 17.7853 2.148 17.836 2.224C17.912 2.27467 17.9373 2.36333 17.912 2.49L17.57 4.656C17.5447 4.75733 17.5067 4.846 17.456 4.922C17.4053 4.998 17.3167 5.036 17.19 5.036H6.664L5.41 12.94H14.948C15.2267 12.94 15.3407 13.0667 15.29 13.32L14.986 15.372C14.9353 15.6253 14.8087 15.752 14.606 15.752H4.954L3.662 24.074H14.074C14.3527 24.074 14.4667 24.2007 14.416 24.454L14.074 26.62C14.0233 26.8733 13.8967 27 13.694 27H0.432ZM28.916 8C30.284 8 31.5506 8.13933 32.716 8.418C33.9066 8.67133 35.2366 8.84867 36.706 8.95L33.78 27.342C33.552 28.862 33.1213 30.154 32.488 31.218C31.8546 32.282 30.9553 33.0927 29.79 33.65C28.6246 34.2073 27.1046 34.486 25.23 34.486C23.7606 34.486 22.5193 34.2833 21.506 33.878C20.518 33.4727 19.8213 32.89 19.416 32.13C19.0106 31.37 18.9473 30.4707 19.226 29.432C19.302 29.204 19.454 29.09 19.682 29.09H22.076C22.3293 29.09 22.4433 29.2167 22.418 29.47C22.3166 30.2553 22.532 30.8127 23.064 31.142C23.6213 31.4967 24.4826 31.674 25.648 31.674C27.1426 31.674 28.2826 31.332 29.068 30.648C29.8533 29.9893 30.36 28.9507 30.588 27.532L31.196 23.77C30.0053 24.682 28.878 25.366 27.814 25.822C26.7753 26.2527 25.686 26.468 24.546 26.468C22.6966 26.468 21.392 25.8853 20.632 24.72C19.872 23.5547 19.682 21.7813 20.062 19.4L20.784 14.992C21.1386 12.7373 21.9493 11.0147 23.216 9.824C24.4826 8.608 26.3826 8 28.916 8ZM25.648 23.618C26.5346 23.618 27.4213 23.4027 28.308 22.972C29.22 22.5413 30.3346 21.8067 31.652 20.768L33.172 11.268C32.564 11.1413 31.842 11.04 31.006 10.964C30.17 10.888 29.486 10.85 28.954 10.85C27.434 10.85 26.2686 11.2173 25.458 11.952C24.6726 12.6867 24.1406 13.9153 23.862 15.638L23.292 19.21C23.0386 20.7553 23.102 21.8827 23.482 22.592C23.862 23.276 24.584 23.618 25.648 23.618ZM44.3173 27.456C42.9999 27.456 41.9993 27.1393 41.3153 26.506C40.6313 25.8727 40.1879 24.9987 39.9853 23.884C39.8079 22.7693 39.8333 21.5027 40.0613 20.084L40.8213 15.296C41.2519 12.6613 42.1259 10.7867 43.4433 9.672C44.7606 8.55733 46.6859 8 49.2193 8C50.5366 8 51.7526 8.13933 52.8673 8.418C54.0073 8.67133 55.3119 8.84867 56.7812 8.95L54.6533 22.364C54.5519 23.048 54.4506 23.7573 54.3493 24.492C54.2733 25.2013 54.2353 25.9107 54.2353 26.62C54.2353 26.8733 54.0833 27 53.7793 27H51.6893C51.4359 27 51.3093 26.8733 51.3093 26.62C51.3093 26.2147 51.3219 25.7967 51.3473 25.366C51.3726 24.9353 51.3979 24.5047 51.4233 24.074C50.2579 25.1887 49.0546 26.0373 47.8132 26.62C46.5973 27.1773 45.4319 27.456 44.3173 27.456ZM45.5333 24.606C46.3946 24.606 47.2939 24.3653 48.2313 23.884C49.1939 23.3773 50.3339 22.5413 51.6513 21.376L53.2473 11.268C52.6393 11.1413 51.9553 11.04 51.1953 10.964C50.4353 10.888 49.7766 10.85 49.2193 10.85C47.5219 10.85 46.2806 11.23 45.4953 11.99C44.7353 12.75 44.2159 13.9407 43.9373 15.562L43.1773 20.198C42.9746 21.5153 43.0253 22.5793 43.3293 23.39C43.6333 24.2007 44.3679 24.606 45.5333 24.606ZM74.8419 27.456C72.4099 27.456 70.6619 26.81 69.5979 25.518C68.5593 24.226 68.2426 22.3133 68.6479 19.78L70.6239 7.24C70.9786 5.01067 71.8019 3.35133 73.0939 2.262C74.4113 1.14733 76.2353 0.589998 78.5659 0.589998C80.5166 0.589998 81.9986 1.02067 83.0119 1.882C84.0506 2.74333 84.5699 3.98467 84.5699 5.606C84.5699 6.54333 84.4053 7.43 84.0759 8.266C83.7466 9.07667 83.2779 9.786 82.6699 10.394C82.0619 11.002 81.3399 11.4707 80.5039 11.8V11.838C81.9733 12.142 82.9739 12.7753 83.5059 13.738C84.0379 14.7007 84.1519 16.0813 83.8479 17.88L83.4299 20.464C83.0753 22.7187 82.1506 24.454 80.6559 25.67C79.1866 26.8607 77.2486 27.456 74.8419 27.456ZM75.2219 24.606C76.6406 24.606 77.7806 24.226 78.6419 23.466C79.5286 22.706 80.0859 21.604 80.3139 20.16L80.6939 17.652C80.8713 16.4867 80.6686 15.5873 80.0859 14.954C79.5286 14.3207 78.6546 14.004 77.4639 14.004C76.9826 14.004 76.4759 14.042 75.9439 14.118C75.4373 14.1687 74.8926 14.27 74.3099 14.422C73.7526 14.5487 73.1699 14.7133 72.5619 14.916L71.8019 19.78C71.5739 21.5027 71.7259 22.744 72.2579 23.504C72.7899 24.2387 73.7779 24.606 75.2219 24.606ZM72.9799 12.332L73.3979 12.256C75.3739 11.876 76.9319 11.4327 78.0719 10.926C79.2373 10.4193 80.0606 9.77333 80.5419 8.988C81.0486 8.20267 81.3019 7.22733 81.3019 6.062C81.3019 5.17533 81.0233 4.504 80.4659 4.048C79.9339 3.592 79.1486 3.364 78.1099 3.364C76.8686 3.364 75.8933 3.68067 75.1839 4.314C74.4746 4.922 74.0186 5.84667 73.8159 7.088L72.9799 12.332ZM105.176 8C106.544 8 107.81 8.13933 108.976 8.418C110.166 8.67133 111.496 8.84867 112.966 8.95L110.04 27.342C109.812 28.862 109.381 30.154 108.748 31.218C108.114 32.282 107.215 33.0927 106.05 33.65C104.884 34.2073 103.364 34.486 101.49 34.486C100.02 34.486 98.7791 34.2833 97.7657 33.878C96.7777 33.4727 96.0811 32.89 95.6757 32.13C95.2704 31.37 95.2071 30.4707 95.4857 29.432C95.5617 29.204 95.7137 29.09 95.9417 29.09H98.3357C98.5891 29.09 98.7031 29.2167 98.6777 29.47C98.5764 30.2553 98.7917 30.8127 99.3237 31.142C99.8811 31.4967 100.742 31.674 101.908 31.674C103.402 31.674 104.542 31.332 105.328 30.648C106.113 29.9893 106.62 28.9507 106.848 27.532L107.456 23.77C106.265 24.682 105.138 25.366 104.074 25.822C103.035 26.2527 101.946 26.468 100.806 26.468C98.9564 26.468 97.6517 25.8853 96.8917 24.72C96.1317 23.5547 95.9417 21.7813 96.3217 19.4L97.0437 14.992C97.3984 12.7373 98.2091 11.0147 99.4757 9.824C100.742 8.608 102.642 8 105.176 8ZM101.908 23.618C102.794 23.618 103.681 23.4027 104.568 22.972C105.48 22.5413 106.594 21.8067 107.912 20.768L109.432 11.268C108.824 11.1413 108.102 11.04 107.266 10.964C106.43 10.888 105.746 10.85 105.214 10.85C103.694 10.85 102.528 11.2173 101.718 11.952C100.932 12.6867 100.4 13.9153 100.122 15.638L99.5517 19.21C99.2984 20.7553 99.3617 21.8827 99.7417 22.592C100.122 23.276 100.844 23.618 101.908 23.618ZM123.009 27.456C120.476 27.456 118.639 26.7973 117.499 25.48C116.359 24.1373 115.992 22.1993 116.397 19.666L117.157 15.068C117.562 12.6613 118.462 10.888 119.855 9.748C121.248 8.58267 123.186 8 125.669 8C128.076 8 129.874 8.646 131.065 9.938C132.281 11.2047 132.699 13.1173 132.319 15.676L131.635 20.198C131.255 22.7313 130.356 24.5807 128.937 25.746C127.544 26.886 125.568 27.456 123.009 27.456ZM123.313 24.606C124.884 24.606 126.074 24.2387 126.885 23.504C127.721 22.7693 128.266 21.566 128.519 19.894L129.127 16.056C129.406 14.2573 129.216 12.94 128.557 12.104C127.924 11.268 126.86 10.85 125.365 10.85C123.794 10.85 122.616 11.2173 121.831 11.952C121.046 12.6867 120.514 13.8773 120.235 15.524L119.589 19.438C119.31 21.1353 119.462 22.4273 120.045 23.314C120.628 24.1753 121.717 24.606 123.313 24.606ZM135.868 27C135.589 27 135.475 26.8733 135.526 26.62L138.642 8.836C138.667 8.58267 138.819 8.456 139.098 8.456H141.644C141.821 8.456 141.948 8.55733 142.024 8.76L145.786 19.704L152.892 8.76C153.019 8.55733 153.171 8.456 153.348 8.456H156.122C156.375 8.456 156.489 8.58267 156.464 8.836L153.918 26.62C153.893 26.8733 153.766 27 153.538 27H151.182C150.929 27 150.815 26.8733 150.84 26.62L152.246 17.272C152.347 16.6133 152.461 15.9547 152.588 15.296C152.715 14.6373 152.841 13.9913 152.968 13.358H152.892C152.487 13.966 152.081 14.574 151.676 15.182C151.271 15.79 150.865 16.398 150.46 17.006L145.406 24.492C145.381 24.5427 145.33 24.5933 145.254 24.644C145.178 24.6693 145.115 24.682 145.064 24.682C145.013 24.682 144.963 24.6693 144.912 24.644C144.887 24.6187 144.849 24.568 144.798 24.492L142.024 16.854C141.821 16.2713 141.606 15.6887 141.378 15.106C141.175 14.5233 140.973 13.9407 140.77 13.358H140.694C140.618 13.9913 140.542 14.6373 140.466 15.296C140.39 15.9547 140.289 16.6133 140.162 17.272L138.642 26.62C138.617 26.8733 138.49 27 138.262 27H135.868Z" fill="#18BD4F"/>
<path d="M161.673 27.456C161.04 27.456 160.546 27.304 160.191 27C159.837 26.696 159.71 26.2653 159.811 25.708L160.001 24.606C160.179 23.5167 160.913 22.972 162.205 22.972C162.864 22.972 163.371 23.1367 163.725 23.466C164.08 23.7953 164.207 24.2387 164.105 24.796L163.915 25.898C163.738 26.9367 162.991 27.456 161.673 27.456Z" fill="#200E32"/>
</svg>
